<?xml version="1.0" encoding="UTF-8"?>
<svg id="Capa_1" data-name="Capa 1" xmlns="http://www.w3.org/2000/svg" viewBox="0 0 1407.19 600">
  <defs>
    <style>
      .cls-1 {
        fill: #010e35;
      }

      .cls-2 {
        fill: #fff;
      }

      .cls-3 {
        fill: #07fdbb;
        fill-rule: evenodd;
      }
    </style>
  </defs>
  <g>
    <g>
      <path d="M388.88,449.31c-92.56,0-167.86-75.3-167.86-167.86s75.3-167.86,167.86-167.86,167.86,75.3,167.86,167.86-75.3,167.86-167.86,167.86Zm0-331.57c-90.27,0-163.71,73.44-163.71,163.71s73.44,163.71,163.71,163.71,163.71-73.44,163.71-163.71-73.44-163.71-163.71-163.71Zm0,269.07c-58.09,0-105.36-47.26-105.36-105.36s47.26-105.36,105.36-105.36,105.35,47.26,105.35,105.36-47.26,105.36-105.35,105.36Zm0-206.56c-55.8,0-101.2,45.4-101.2,101.2s45.4,101.2,101.2,101.2,101.2-45.4,101.2-101.2-45.4-101.2-101.2-101.2Z"/>
      <g>
        <path class="cls-3" d="M287.68,281.45c0-57.04,46.24-103.28,103.28-103.28s103.28,46.24,103.28,103.28-46.24,103.28-103.28,103.28-103.28-46.24-103.28-103.28Zm-62.51,0c0-91.56,74.22-165.79,165.78-165.79s165.78,74.22,165.78,165.79-74.22,165.78-165.78,165.78-165.78-74.22-165.78-165.78Z"/>
        <path class="cls-1" d="M388.88,449.31c-92.56,0-167.86-75.3-167.86-167.86s75.3-167.86,167.86-167.86,167.86,75.3,167.86,167.86-75.3,167.86-167.86,167.86Zm0-331.57c-90.27,0-163.71,73.44-163.71,163.71s73.44,163.71,163.71,163.71,163.71-73.44,163.71-163.71-73.44-163.71-163.71-163.71Zm0,269.07c-58.09,0-105.36-47.26-105.36-105.36s47.26-105.36,105.36-105.36,105.35,47.26,105.35,105.36-47.26,105.36-105.35,105.36Zm0-206.56c-55.8,0-101.2,45.4-101.2,101.2s45.4,101.2,101.2,101.2,101.2-45.4,101.2-101.2-45.4-101.2-101.2-101.2Z"/>
      </g>
    </g>
    <g>
      <path class="cls-3" d="M45.2,273.64c3.9-85.06,73.03-154.06,158.11-157.81,26.45-1.17,51.62,3.87,74.15,13.78,3.35,1.47,3.93,5.98,1.08,8.28-14.53,11.75-27.25,25.65-37.66,41.24-1.16,1.74-3.27,2.54-5.3,2.04-9.38-2.31-19.27-3.34-29.47-2.89-53.6,2.37-97.02,46.52-98.55,100.16-1.67,58.42,45.19,106.3,103.24,106.3,8.54,0,16.84-1.04,24.78-2.99,2.03-.5,4.14,.29,5.3,2.04,10.4,15.58,23.12,29.49,37.65,41.23,2.85,2.3,2.26,6.81-1.09,8.29-20.39,8.96-42.94,13.94-66.64,13.94-94.15,0-169.97-78.48-165.61-173.59Z"/>
      <path class="cls-1" d="M210.81,449.31c-46.3,0-89.42-18.44-121.4-51.93-31.97-33.47-48.4-77.45-46.27-123.83l2.07,.09-2.07-.09c3.94-85.82,74.26-156.01,160.09-159.79,26.14-1.15,51.4,3.54,75.08,13.95,2.23,.98,3.76,3.01,4.08,5.44,.33,2.44-.62,4.81-2.53,6.35-14.42,11.66-26.95,25.38-37.23,40.78-1.63,2.44-4.65,3.61-7.52,2.9-9.38-2.31-19.1-3.25-28.88-2.83-52.64,2.33-95.06,45.44-96.56,98.14-.79,27.61,9.36,53.71,28.58,73.49,19.22,19.78,45,30.67,72.58,30.67,8.21,0,16.38-.99,24.28-2.93,2.86-.71,5.89,.46,7.53,2.9,10.29,15.4,22.82,29.13,37.23,40.78,1.91,1.54,2.86,3.92,2.53,6.35-.32,2.43-1.85,4.46-4.09,5.45-21.31,9.37-44.01,14.12-67.48,14.12Zm.12-331.57c-2.5,0-5.01,.05-7.53,.16-83.71,3.69-152.28,72.14-156.12,155.83h0c-2.08,45.24,13.95,88.13,45.13,120.77,31.2,32.66,73.25,50.65,118.4,50.65,22.89,0,45.03-4.63,65.81-13.76,.92-.4,1.52-1.2,1.65-2.19,.13-1-.24-1.94-1.02-2.57-14.74-11.92-27.55-25.94-38.07-41.7-.68-1.01-1.89-1.47-3.08-1.17-8.23,2.02-16.73,3.05-25.27,3.05-28.71,0-55.54-11.34-75.56-31.93-20.01-20.58-30.57-47.75-29.75-76.5,1.57-54.87,45.72-99.75,100.53-102.17,10.17-.45,20.29,.54,30.06,2.94,1.2,.3,2.41-.17,3.08-1.17,10.52-15.75,23.33-29.78,38.08-41.7,.79-.64,1.16-1.57,1.02-2.58-.13-.99-.73-1.79-1.64-2.19-20.81-9.15-42.88-13.77-65.7-13.77Z"/>
    </g>
    <g>
      <path class="cls-1" d="M388.9,166.4c-63.45,0-115.06,51.62-115.06,115.06s51.62,115.06,115.06,115.06,115.07-51.62,115.07-115.06-51.62-115.06-115.07-115.06Zm0,229.03c-62.84,0-113.96-51.12-113.96-113.96s51.12-113.96,113.96-113.96,113.97,51.12,113.97,113.96-51.12,113.96-113.97,113.96Z"/>
      <path class="cls-1" d="M388.88,127.22c-85.04,0-154.23,69.18-154.23,154.23s69.18,154.23,154.23,154.23,154.23-69.18,154.23-154.23-69.18-154.23-154.23-154.23Zm0,307.29c-84.4,0-153.06-68.66-153.06-153.06s68.66-153.07,153.06-153.07,153.07,68.66,153.07,153.07-68.66,153.06-153.07,153.06Z"/>
      <path class="cls-1" d="M257.92,134.55c-15.18-4.86-31.03-7.33-47.12-7.33-42.54,0-82.14,16.94-111.53,47.71-29.37,30.74-44.48,71.14-42.53,113.75,3.59,78.45,67.83,142.93,146.25,146.8,2.62,.13,5.26,.19,7.83,.19,15.94,0,31.67-2.43,46.72-7.21,.9-.29,1.56-1,1.77-1.92,.22-.94-.07-1.9-.77-2.57-8.55-8.15-16.41-17.12-23.35-26.64-.7-.95-1.87-1.42-2.99-1.19-7.96,1.47-16.17,2.1-24.38,1.92-61.42-1.53-111.31-50.81-113.59-112.18-1.18-32.03,10.38-62.35,32.56-85.37,22.19-23.03,52.03-35.71,84.01-35.71,7.06,0,14.11,.63,20.97,1.88,1.4,.25,2.83-.31,3.67-1.46,6.96-9.51,14.83-18.45,23.38-26.57,.64-.6,.9-1.48,.71-2.34-.19-.84-.8-1.5-1.62-1.76Zm.1,3.26c-8.61,8.18-16.52,17.17-23.51,26.72-.58,.79-1.55,1.16-2.53,1-6.93-1.26-14.06-1.9-21.18-1.9-32.29,0-62.43,12.81-84.85,36.07-22.4,23.25-34.08,53.88-32.88,86.22,2.3,61.98,52.69,111.75,114.72,113.3,8.41,.21,16.68-.47,24.62-1.94,.72-.13,1.43,.17,1.84,.74,6.98,9.57,14.88,18.59,23.49,26.8,.4,.38,.56,.93,.44,1.46h0c-.13,.52-.49,.91-.98,1.07-14.98,4.76-30.55,7.16-46.38,7.16-2.58,0-5.17-.07-7.77-.19-77.83-3.85-141.59-67.84-145.15-145.69-1.93-42.29,13.06-82.39,42.21-112.9,29.17-30.53,68.48-47.35,110.69-47.35,15.96,0,31.7,2.45,46.76,7.27,.43,.14,.74,.49,.84,.92,.1,.45-.04,.92-.38,1.24Z"/>
    </g>
  </g>
  <g>
    <path class="cls-2" d="M689.44,253.51c.45,1.49-.28,3.08-1.7,3.7-1.35,.59-2.92,1.26-4.71,2.01-3.04,1.28-6.55,2.4-10.55,3.36-4,.96-8.23,1.44-12.7,1.44-5.12,0-9.83-.92-14.14-2.76-4.32-1.84-7.75-4.71-10.31-8.63-2.56-3.91-3.84-8.83-3.84-14.74v-81.05c0-1.7-1.38-3.08-3.08-3.08h-10.86c-1.7,0-3.08-1.38-3.08-3.08v-10.38c0-1.7,1.38-3.08,3.08-3.08h10.86c1.7,0,3.08-1.38,3.08-3.08v-35.55c0-1.7,1.38-3.08,3.08-3.08h14.94c1.7,0,3.08,1.38,3.08,3.08v35.55c0,1.7,1.38,3.08,3.08,3.08h21.89c1.7,0,3.08,1.38,3.08,3.08v10.38c0,1.7-1.38,3.08-3.08,3.08h-21.89c-1.7,0-3.08,1.38-3.08,3.08v74.58c.32,4.48,1.83,7.79,4.55,9.95,2.72,2.16,5.91,3.24,9.59,3.24,4.15,0,7.99-.72,11.5-2.16,1.48-.61,2.75-1.14,3.81-1.61,1.69-.74,3.65,.16,4.18,1.94l3.22,10.74Z"/>
    <path class="cls-2" d="M868.69,137.22h13.65c2.21,0,3.7,2.26,2.83,4.29l-50.58,118.24c-.48,1.13-1.6,1.87-2.83,1.87h-14.37c-1.25,0-2.37-.75-2.85-1.9l-20.56-49.8c-1.05-2.54-4.65-2.54-5.69,0l-20.35,49.78c-.47,1.16-1.6,1.91-2.85,1.91h-14.36c-1.23,0-2.35-.73-2.83-1.87l-50.58-118.24c-.87-2.03,.62-4.29,2.83-4.29h13.42c1.24,0,2.36,.75,2.84,1.9l39.44,94.76c1.06,2.55,4.69,2.52,5.7-.05l16.9-42.79c.29-.73,.29-1.55,0-2.28l-18.93-47.06c-.81-2.02,.68-4.23,2.86-4.23h11.77c1.28,0,2.43,.8,2.88,2l11.23,29.89c1,2.66,4.76,2.66,5.76,0l11.23-29.89c.45-1.2,1.6-2,2.88-2h11.79c2.18,0,3.66,2.19,2.86,4.22l-18.72,47.08c-.29,.73-.29,1.54,0,2.27l16.89,42.78c1.02,2.57,4.65,2.6,5.71,.05l39.21-94.73c.48-1.15,1.6-1.9,2.84-1.9Z"/>
    <path class="cls-2" d="M906.66,118.4v-20.21c0-1.7,1.38-3.08,3.08-3.08h14.94c1.7,0,3.08,1.38,3.08,3.08v20.21c0,1.7-1.38,3.08-3.08,3.08h-14.94c-1.7,0-3.08-1.38-3.08-3.08Zm0,140.14v-118.96c0-1.7,1.38-3.08,3.08-3.08h14.94c1.7,0,3.08,1.38,3.08,3.08v118.96c0,1.7-1.38,3.08-3.08,3.08h-14.94c-1.7,0-3.08-1.38-3.08-3.08Z"/>
    <path class="cls-2" d="M1067.29,261.62h-14.94c-1.7,0-3.08-1.38-3.08-3.08v-66.29c0-13.15-2.04-22.77-6.11-28.86-4.07-6.1-10.27-9.15-18.58-9.15-5.75,0-11.47,1.42-17.14,4.27-5.67,2.84-10.71,6.67-15.1,11.49-4.29,4.7-7.39,10.1-9.32,16.22-.1,.31-.15,.64-.15,.97v71.36c0,1.7-1.38,3.08-3.08,3.08h-14.94c-1.7,0-3.08-1.38-3.08-3.08v-118.24c0-1.7,1.38-3.08,3.08-3.08h13.02c1.7,0,3.08,1.38,3.08,3.08v14c0,2.9,3.6,4.16,5.46,1.93,2.23-2.67,4.73-5.12,7.48-7.36,5.27-4.28,11.26-7.61,17.98-9.99,6.71-2.38,13.74-3.57,21.09-3.57s13.22,1.31,18.1,3.92c4.87,2.62,8.71,6.27,11.5,10.94,2.79,4.68,4.79,10.19,5.99,16.53,1.2,6.34,1.8,13.24,1.8,20.69v71.14c0,1.7-1.38,3.08-3.08,3.08Z"/>
    <path class="cls-2" d="M1158.57,264.02c-9.43,0-18.02-1.71-25.77-5.12-7.75-3.41-14.46-8.13-20.13-14.16-5.67-6.03-10.07-12.93-13.18-20.7-3.12-7.77-4.67-16.02-4.67-24.74,0-11.74,2.64-22.44,7.91-32.12,5.27-9.68,12.7-17.41,22.29-23.2,9.59-5.79,20.69-8.68,33.32-8.68s23.05,2.76,32.24,8.27c8.04,4.83,14.28,11.09,18.71,18.8,.98,1.71,.12,3.89-1.76,4.48l-14.74,4.63c-1.32,.41-2.77-.09-3.5-1.27-3.09-4.96-7.17-8.88-12.26-11.78-5.75-3.27-12.14-4.91-19.17-4.91-7.67,0-14.66,1.98-20.97,5.93-6.31,3.95-11.31,9.37-14.98,16.25-3.68,6.88-5.51,14.75-5.51,23.6s1.88,16.57,5.63,23.6c3.75,7.04,8.79,12.61,15.1,16.72,6.31,4.11,13.3,6.17,20.97,6.17,4.95,0,9.71-.88,14.26-2.64,4.55-1.76,8.55-4.11,11.98-7.07,2.65-2.28,4.66-4.72,6.02-7.34,.7-1.33,2.2-2.02,3.64-1.59l14.59,4.41c1.84,.56,2.75,2.65,1.86,4.36-2.48,4.74-5.83,9.02-10.06,12.86-5.19,4.72-11.35,8.43-18.46,11.15-7.11,2.71-14.9,4.07-23.37,4.07Z"/>
    <path class="cls-2" d="M1289.44,264.02c-9.43,0-17.98-1.71-25.65-5.12-7.67-3.41-14.3-8.09-19.89-14.04-5.6-5.95-9.91-12.8-12.94-20.58-3.04-7.77-4.55-15.94-4.55-24.5s1.52-16.97,4.55-24.74c3.03-7.77,7.35-14.63,12.94-20.58,5.59-5.95,12.26-10.62,20.01-14.04,7.75-3.41,16.34-5.12,25.77-5.12s17.74,1.71,25.41,5.12c7.67,3.41,14.34,8.09,20.01,14.04,5.67,5.95,10.03,12.81,13.06,20.58,3.03,7.78,4.55,16.02,4.55,24.74s-1.52,16.73-4.55,24.5c-3.04,7.78-7.35,14.63-12.94,20.58-5.6,5.95-12.27,10.63-20.01,14.04-7.75,3.41-16.34,5.12-25.77,5.12Zm-41.47-64c0,8.54,1.88,16.29,5.63,23.25,3.75,6.96,8.75,12.46,14.98,16.49,6.23,4.03,13.18,6.05,20.85,6.05s14.66-2.06,20.97-6.17c6.31-4.11,11.34-9.69,15.1-16.72,3.75-7.04,5.63-14.83,5.63-23.37s-1.88-16.29-5.63-23.25c-3.76-6.96-8.79-12.49-15.1-16.61-6.31-4.11-13.3-6.17-20.97-6.17s-14.62,2.1-20.85,6.29c-6.23,4.19-11.23,9.76-14.98,16.72-3.76,6.96-5.63,14.79-5.63,23.49Z"/>
    <path class="cls-2" d="M680.88,456.23c-9.43,0-18.02-1.71-25.77-5.12-7.75-3.41-14.46-8.13-20.13-14.16-5.67-6.03-10.07-12.93-13.18-20.7-3.12-7.77-4.67-16.02-4.67-24.74,0-11.74,2.64-22.44,7.91-32.12,5.27-9.68,12.7-17.41,22.29-23.2,9.59-5.79,20.69-8.68,33.32-8.68s23.05,2.76,32.24,8.27c8.04,4.83,14.28,11.09,18.71,18.8,.98,1.71,.12,3.89-1.76,4.48l-14.74,4.63c-1.32,.41-2.77-.09-3.5-1.27-3.09-4.96-7.17-8.88-12.26-11.78-5.75-3.27-12.14-4.91-19.17-4.91-7.67,0-14.66,1.98-20.97,5.93-6.31,3.95-11.31,9.37-14.98,16.25-3.68,6.88-5.51,14.75-5.51,23.6s1.88,16.57,5.63,23.6c3.75,7.04,8.79,12.61,15.1,16.72,6.31,4.11,13.3,6.17,20.97,6.17,4.95,0,9.71-.88,14.26-2.64,4.55-1.76,8.55-4.11,11.98-7.07,2.65-2.28,4.66-4.72,6.02-7.34,.7-1.33,2.2-2.02,3.64-1.59l14.59,4.41c1.84,.56,2.75,2.65,1.86,4.36-2.48,4.74-5.83,9.02-10.06,12.86-5.19,4.72-11.35,8.43-18.46,11.15-7.11,2.71-14.9,4.07-23.37,4.07Z"/>
    <path class="cls-2" d="M748.46,417.88c0-7.94,2.28-14.81,6.83-20.61,4.55-5.8,10.82-10.28,18.81-13.46,7.99-3.18,17.26-4.76,27.8-4.76,5.59,0,11.5,.44,17.74,1.32,4.57,.65,8.76,1.53,12.56,2.65,1.99,.58,3.98-.87,3.98-2.94v-4.81c0-9.45-2.88-16.9-8.63-22.33-5.75-5.44-13.9-8.16-24.45-8.16-6.87,0-13.46,1.24-19.77,3.71-5.47,2.15-11.21,5.1-17.22,8.87-1.52,.95-3.52,.38-4.35-1.21l-4.86-9.41c-.72-1.39-.28-3.13,1.03-3.99,7.38-4.83,14.77-8.51,22.15-11.05,8.15-2.79,16.62-4.19,25.41-4.19,15.98,0,28.6,4.4,37.87,13.19,9.27,8.79,13.9,21.03,13.9,36.71v52.51c0,2.54,.52,4.4,1.56,5.58,.67,.77,1.63,1.33,2.88,1.66,1.34,.36,2.27,1.57,2.27,2.96v11.03c0,1.54-1.14,2.84-2.66,3.05-.99,.13-1.9,.25-2.73,.33-1.52,.16-2.76,.24-3.71,.24-4.96,0-8.67-1.36-11.15-4.08-2.48-2.72-3.88-5.59-4.19-8.63l-.03-.55c-.16-2.61-3.31-3.86-5.19-2.04-4.63,4.52-10.16,8.17-16.59,10.98-8.79,3.84-17.5,5.75-26.13,5.75s-15.74-1.71-22.29-5.12c-6.55-3.42-11.67-8.02-15.34-13.82-3.68-5.8-5.51-12.27-5.51-19.41Zm81.49,8.77c1.92-2.21,3.43-4.47,4.55-6.76,1.11-2.29,1.68-4.23,1.68-5.81v-13.27c0-1.3-.8-2.47-2.03-2.91-4.34-1.54-8.86-2.75-13.55-3.64-5.43-1.03-10.79-1.54-16.06-1.54-10.71,0-19.38,2.1-26.01,6.29-6.63,4.19-9.95,9.93-9.95,17.21,0,3.95,1.08,7.79,3.24,11.51,2.16,3.72,5.35,6.76,9.59,9.14,4.23,2.38,9.47,3.56,15.7,3.56,6.55,0,12.78-1.3,18.7-3.91,5.91-2.61,10.62-5.89,14.14-9.85Z"/>
    <path class="cls-2" d="M958.43,456.23c-10.23,0-19.34-2.54-27.32-7.61-5.23-3.32-9.73-7.22-13.52-11.69-1.85-2.19-5.41-.88-5.41,1.98v62.9c0,1.7-1.38,3.08-3.08,3.08h-14.94c-1.7,0-3.08-1.38-3.08-3.08v-169.29c0-1.7,1.38-3.08,3.08-3.08h12.54c1.7,0,3.08,1.38,3.08,3.08v11.4c0,2.81,3.47,4.16,5.34,2.07,4-4.48,8.69-8.29,14.07-11.44,7.99-4.68,16.7-7.02,26.13-7.02,8.63,0,16.54,1.75,23.73,5.24,7.19,3.49,13.42,8.25,18.7,14.27,5.27,6.03,9.38,12.89,12.34,20.58,2.96,7.69,4.43,15.75,4.43,24.15,0,11.74-2.36,22.52-7.07,32.36-4.72,9.83-11.31,17.65-19.77,23.44-8.47,5.79-18.22,8.68-29.24,8.68Zm-6.47-18.22c6.23,0,11.86-1.3,16.9-3.91,5.03-2.61,9.35-6.09,12.94-10.44,3.6-4.35,6.35-9.29,8.27-14.83s2.88-11.23,2.88-17.08c0-6.16-1.08-12.02-3.24-17.55-2.16-5.54-5.19-10.44-9.11-14.71-3.92-4.27-8.47-7.63-13.66-10.08-5.19-2.45-10.83-3.68-16.9-3.68-3.84,0-7.79,.71-11.86,2.13-4.08,1.42-7.95,3.43-11.63,6.04-3.68,2.61-6.79,5.57-9.35,8.88-2.48,3.21-4.13,6.64-4.95,10.29-.05,.24-.08,.49-.08,.74v34.38c0,.46,.1,.91,.29,1.32,2.36,5.12,5.46,9.81,9.3,14.05,3.99,4.42,8.63,7.93,13.9,10.54s10.7,3.91,16.3,3.91Z"/>
    <path class="cls-2" d="M1040.39,302.15v-20.21c0-1.7,1.38-3.08,3.08-3.08h14.94c1.7,0,3.08,1.38,3.08,3.08v20.21c0,1.7-1.38,3.08-3.08,3.08h-14.94c-1.7,0-3.08-1.38-3.08-3.08Zm0,148.61v-118.96c0-1.7,1.38-3.08,3.08-3.08h14.94c1.7,0,3.08,1.38,3.08,3.08v118.96c0,1.7-1.38,3.08-3.08,3.08h-14.94c-1.7,0-3.08-1.38-3.08-3.08Z"/>
    <path class="cls-2" d="M1159.46,445.72c.45,1.49-.28,3.08-1.7,3.7-1.35,.59-2.92,1.26-4.71,2.01-3.04,1.28-6.55,2.4-10.55,3.36-4,.96-8.23,1.44-12.7,1.44-5.12,0-9.83-.92-14.14-2.76-4.32-1.84-7.75-4.71-10.31-8.63-2.56-3.91-3.84-8.83-3.84-14.74v-81.05c0-1.7-1.38-3.08-3.08-3.08h-10.86c-1.7,0-3.08-1.38-3.08-3.08v-10.38c0-1.7,1.38-3.08,3.08-3.08h10.86c1.7,0,3.08-1.38,3.08-3.08v-35.55c0-1.7,1.38-3.08,3.08-3.08h14.94c1.7,0,3.08,1.38,3.08,3.08v35.55c0,1.7,1.38,3.08,3.08,3.08h21.89c1.7,0,3.08,1.38,3.08,3.08v10.38c0,1.7-1.38,3.08-3.08,3.08h-21.89c-1.7,0-3.08,1.38-3.08,3.08v74.58c.32,4.48,1.83,7.79,4.55,9.95,2.72,2.16,5.91,3.24,9.59,3.24,4.15,0,7.99-.72,11.5-2.16,1.48-.61,2.75-1.14,3.81-1.61,1.69-.74,3.65,.16,4.18,1.94l3.22,10.74Z"/>
    <path class="cls-2" d="M1170.06,417.88c0-7.94,2.28-14.81,6.83-20.61,4.55-5.8,10.82-10.28,18.81-13.46,7.99-3.18,17.26-4.76,27.8-4.76,5.59,0,11.5,.44,17.74,1.32,4.57,.65,8.76,1.53,12.56,2.65,1.99,.58,3.98-.87,3.98-2.94v-4.81c0-9.45-2.88-16.9-8.63-22.33-5.75-5.44-13.9-8.16-24.45-8.16-6.87,0-13.46,1.24-19.77,3.71-5.47,2.15-11.21,5.1-17.22,8.87-1.52,.95-3.52,.38-4.35-1.21l-4.86-9.41c-.72-1.39-.28-3.13,1.03-3.99,7.38-4.83,14.77-8.51,22.15-11.05,8.15-2.79,16.62-4.19,25.41-4.19,15.98,0,28.6,4.4,37.87,13.19,9.27,8.79,13.9,21.03,13.9,36.71v52.51c0,2.54,.52,4.4,1.56,5.58,.67,.77,1.63,1.33,2.88,1.66,1.34,.36,2.27,1.57,2.27,2.96v11.03c0,1.54-1.14,2.84-2.66,3.05-.99,.13-1.9,.25-2.73,.33-1.52,.16-2.76,.24-3.71,.24-4.96,0-8.67-1.36-11.15-4.08-2.48-2.72-3.88-5.59-4.19-8.63l-.03-.55c-.16-2.61-3.31-3.86-5.19-2.04-4.63,4.52-10.16,8.17-16.59,10.98-8.79,3.84-17.5,5.75-26.13,5.75s-15.74-1.71-22.29-5.12c-6.55-3.42-11.67-8.02-15.34-13.82-3.68-5.8-5.51-12.27-5.51-19.41Zm81.49,8.77c1.92-2.21,3.43-4.47,4.55-6.76,1.11-2.29,1.68-4.23,1.68-5.81v-13.27c0-1.3-.8-2.47-2.03-2.91-4.34-1.54-8.86-2.75-13.55-3.64-5.43-1.03-10.79-1.54-16.06-1.54-10.71,0-19.38,2.1-26.01,6.29-6.63,4.19-9.95,9.93-9.95,17.21,0,3.95,1.08,7.79,3.24,11.51,2.16,3.72,5.35,6.76,9.59,9.14,4.23,2.38,9.47,3.56,15.7,3.56,6.55,0,12.78-1.3,18.7-3.91,5.91-2.61,10.62-5.89,14.14-9.85Z"/>
    <path class="cls-2" d="M1316.23,278.86h14.94c1.7,0,3.08,1.38,3.08,3.08v140.19c0,6.9,.96,11.16,2.88,12.76,1.92,1.61,4.23,2.41,6.95,2.41,3.36,0,6.55-.36,9.59-1.08,1.62-.38,3.11-.78,4.46-1.19,1.74-.52,3.54,.58,3.88,2.36l2.19,11.25c.29,1.51-.56,3-2.01,3.5-2.94,1.03-6.26,1.91-9.96,2.65-4.79,.96-9.03,1.44-12.7,1.44-8.15,0-14.58-2.33-19.3-6.98-4.71-4.65-7.07-11.15-7.07-19.5v-147.82c0-1.7,1.38-3.08,3.08-3.08Z"/>
  </g>
</svg>